<svg width="26" height="26" viewBox="0 0 26 26" fill="none" xmlns="http://www.w3.org/2000/svg">
<g filter="url(#filter0_d)">
<path d="M18.2333 11.1503C17.8642 10.7666 17.4191 10.5615 16.9473 10.5615C16.4794 10.5615 16.0304 10.7628 15.6462 11.1465L14.4439 12.3432C14.345 12.2901 14.2461 12.2407 14.151 12.1913C14.014 12.1229 13.8847 12.0583 13.7743 11.9899C12.6482 11.2757 11.6248 10.3449 10.6432 9.14066C10.1676 8.54041 9.84804 8.03514 9.61596 7.52227C9.92793 7.23735 10.2171 6.94102 10.4986 6.6561C10.6051 6.54972 10.7117 6.43955 10.8182 6.33318C11.6172 5.53538 11.6172 4.50205 10.8182 3.70425L9.77955 2.66712C9.66161 2.54935 9.53987 2.42778 9.42573 2.30621C9.19746 2.07067 8.95777 1.82754 8.71047 1.59959C8.34143 1.23489 7.9001 1.04114 7.43595 1.04114C6.97179 1.04114 6.52286 1.23489 6.1424 1.59959C6.1386 1.60339 6.1386 1.60339 6.13479 1.60719L4.84124 2.91026C4.35426 3.39653 4.07653 3.98918 4.01566 4.6768C3.92435 5.78612 4.25154 6.81945 4.50264 7.49568C5.11898 9.15586 6.03968 10.6945 7.41312 12.3432C9.07952 14.3301 11.0845 15.8991 13.3749 17.0046C14.2499 17.4187 15.4179 17.9088 16.7229 17.9924C16.8028 17.9962 16.8865 18 16.9626 18C17.8414 18 18.5795 17.6847 19.1578 17.0578C19.1616 17.0502 19.1692 17.0464 19.173 17.0388C19.3708 16.7995 19.5991 16.5829 19.8388 16.3512C20.0024 16.1954 20.1698 16.0321 20.3334 15.8611C20.71 15.4698 20.9079 15.014 20.9079 14.5467C20.9079 14.0756 20.7062 13.6235 20.322 13.2436L18.2333 11.1503ZM19.5953 15.1507C19.5915 15.1507 19.5915 15.1545 19.5953 15.1507C19.4469 15.3103 19.2947 15.4546 19.1311 15.6142C18.8838 15.8497 18.6327 16.0967 18.3969 16.374C18.0126 16.7843 17.5599 16.978 16.9664 16.978C16.9093 16.978 16.8484 16.978 16.7913 16.9742C15.6614 16.9021 14.6113 16.4614 13.8238 16.0853C11.6704 15.0443 9.77955 13.5665 8.20827 11.6936C6.91092 10.1322 6.04348 8.68857 5.46899 7.13857C5.11517 6.19262 4.98582 5.4556 5.04288 4.76038C5.08093 4.3159 5.25214 3.94739 5.56791 3.63207L6.86527 2.33661C7.05169 2.16185 7.24953 2.06687 7.44356 2.06687C7.68324 2.06687 7.87728 2.21124 7.99902 2.33281C8.00283 2.33661 8.00663 2.3404 8.01044 2.3442C8.24251 2.56075 8.46318 2.78489 8.69526 3.02423C8.8132 3.1458 8.93494 3.26737 9.05669 3.39273L10.0953 4.42987C10.4986 4.83256 10.4986 5.20487 10.0953 5.60757C9.985 5.71774 9.87847 5.82791 9.76814 5.93428C9.44856 6.261 9.14419 6.56492 8.8132 6.86124C8.80559 6.86884 8.79798 6.87264 8.79417 6.88024C8.46698 7.20695 8.52786 7.52607 8.59634 7.74262C8.60014 7.75401 8.60395 7.76541 8.60775 7.77681C8.87787 8.43024 9.25833 9.04568 9.83662 9.7789L9.84043 9.78269C10.8905 11.0744 11.9976 12.0811 13.2189 12.8523C13.3749 12.9511 13.5346 13.0309 13.6868 13.1068C13.8238 13.1752 13.9531 13.2398 14.0635 13.3082C14.0787 13.3158 14.0939 13.3272 14.1091 13.3348C14.2385 13.3994 14.3602 13.4298 14.4858 13.4298C14.8016 13.4298 14.9994 13.2322 15.0641 13.1676L16.3652 11.8684C16.4946 11.7392 16.7 11.5834 16.9397 11.5834C17.1756 11.5834 17.3696 11.7316 17.4876 11.8608C17.4914 11.8646 17.4914 11.8646 17.4952 11.8684L19.5915 13.9616C19.9834 14.3491 19.9834 14.748 19.5953 15.1507Z" fill="#00B2FF"/>
<path d="M13.7284 4.28169C14.7252 4.44885 15.6307 4.91992 16.3536 5.64174C17.0764 6.36355 17.5444 7.26772 17.7156 8.26307C17.7575 8.5138 17.9743 8.68856 18.2216 8.68856C18.252 8.68856 18.2787 8.68476 18.3091 8.68096C18.5907 8.63537 18.7771 8.36944 18.7314 8.08831C18.526 6.88402 17.9553 5.7861 17.0841 4.91613C16.2128 4.04615 15.1133 3.4763 13.9072 3.27115C13.6257 3.22556 13.3632 3.41171 13.3137 3.68904C13.2643 3.96637 13.4469 4.2361 13.7284 4.28169Z" fill="#00B2FF"/>
<path d="M21.9921 7.94018C21.6535 5.95709 20.7176 4.15255 19.2795 2.71652C17.8414 1.28049 16.0342 0.345932 14.0482 0.00781895C13.7705 -0.0415684 13.508 0.148383 13.4585 0.425712C13.4129 0.70684 13.5993 0.968972 13.8808 1.01836C15.6538 1.31848 17.2707 2.15807 18.5566 3.43834C19.8426 4.72241 20.6796 6.33699 20.9801 8.10734C21.022 8.35808 21.2388 8.53283 21.4861 8.53283C21.5166 8.53283 21.5432 8.52903 21.5736 8.52523C21.8514 8.48344 22.0416 8.21751 21.9921 7.94018Z" fill="#00B2FF"/>
</g>
<defs>
<filter id="filter0_d" x="0" y="0" width="26" height="26" filterUnits="userSpaceOnUse" color-interpolation-filters="sRGB">
<feFlood flood-opacity="0" result="BackgroundImageFix"/>
<feColorMatrix in="SourceAlpha" type="matrix" values="0 0 0 0 0 0 0 0 0 0 0 0 0 0 0 0 0 0 127 0"/>
<feOffset dy="4"/>
<feGaussianBlur stdDeviation="2"/>
<feColorMatrix type="matrix" values="0 0 0 0 0 0 0 0 0 0 0 0 0 0 0 0 0 0 0.25 0"/>
<feBlend mode="normal" in2="BackgroundImageFix" result="effect1_dropShadow"/>
<feBlend mode="normal" in="SourceGraphic" in2="effect1_dropShadow" result="shape"/>
</filter>
</defs>
</svg>
